<mxfile host="65bd71144e">
    <diagram id="7JzNv-7phFswcEIXKfGw" name="Page-1">
        <mxGraphModel dx="1194" dy="393" grid="1" gridSize="10" guides="1" tooltips="1" connect="1" arrows="1" fold="1" page="1" pageScale="1" pageWidth="850" pageHeight="1100" math="0" shadow="0">
            <root>
                <mxCell id="0"/>
                <mxCell id="1" parent="0"/>
                <mxCell id="2" value="" style="shape=image;imageAspect=0;aspect=fixed;verticalLabelPosition=bottom;verticalAlign=top;image=https://raw.githubusercontent.com/walkxcode/dashboard-icons/main/png/netbox.png;" parent="1" vertex="1">
                    <mxGeometry x="260" y="360" width="70" height="70" as="geometry"/>
                </mxCell>
                <mxCell id="6" value="Retrieve inventory data" style="edgeStyle=none;html=1;entryX=0.5;entryY=1;entryDx=0;entryDy=0;" parent="1" source="3" target="2" edge="1">
                    <mxGeometry x="-0.1111" y="75" relative="1" as="geometry">
                        <mxPoint as="offset"/>
                    </mxGeometry>
                </mxCell>
                <mxCell id="7" value="manage playbook" style="edgeStyle=none;html=1;entryX=0;entryY=0.5;entryDx=0;entryDy=0;" parent="1" source="3" target="8" edge="1">
                    <mxGeometry x="0.0476" y="-10" relative="1" as="geometry">
                        <mxPoint x="430" y="550" as="targetPoint"/>
                        <mxPoint as="offset"/>
                    </mxGeometry>
                </mxCell>
                <mxCell id="3" value="" style="shape=image;imageAspect=0;aspect=fixed;verticalLabelPosition=bottom;verticalAlign=top;image=https://raw.githubusercontent.com/walkxcode/dashboard-icons/main/png/ansible.png;" parent="1" vertex="1">
                    <mxGeometry x="265" y="520" width="60" height="60" as="geometry"/>
                </mxCell>
                <mxCell id="5" value="Create netbox base data" style="edgeStyle=none;html=1;entryX=0;entryY=0.5;entryDx=0;entryDy=0;" parent="1" source="4" target="2" edge="1">
                    <mxGeometry x="-0.0405" y="-15" relative="1" as="geometry">
                        <mxPoint as="offset"/>
                    </mxGeometry>
                </mxCell>
                <mxCell id="4" value="" style="shape=image;imageAspect=0;aspect=fixed;verticalLabelPosition=bottom;verticalAlign=top;image=https://raw.githubusercontent.com/walkxcode/dashboard-icons/main/png/terraform.png;" parent="1" vertex="1">
                    <mxGeometry x="40" y="360" width="66.23" height="70" as="geometry"/>
                </mxCell>
                <mxCell id="8" value="" style="shape=image;imageAspect=0;aspect=fixed;verticalLabelPosition=bottom;verticalAlign=top;image=https://raw.githubusercontent.com/walkxcode/dashboard-icons/main/png/proxmox.png;" parent="1" vertex="1">
                    <mxGeometry x="440" y="520" width="69.03" height="60" as="geometry"/>
                </mxCell>
            </root>
        </mxGraphModel>
    </diagram>
</mxfile>